<?xml version="1.0" standalone="no"?>
<!DOCTYPE svg PUBLIC "-//W3C//DTD SVG 20010904//EN"
 "http://www.w3.org/TR/2001/REC-SVG-20010904/DTD/svg10.dtd">
<svg version="1.0" xmlns="http://www.w3.org/2000/svg"
 width="512.000000pt" height="512.000000pt" viewBox="0 0 512.000000 512.000000"
 preserveAspectRatio="xMidYMid meet">
<metadata>
Created by potrace 1.11, written by Peter Selinger 2001-2013
</metadata>
<g transform="translate(0.000000,512.000000) scale(0.100000,-0.100000)"
fill="#000000" stroke="none">
<path d="M909 4087 c-2 -3 -31 -7 -64 -10 -73 -7 -200 -48 -275 -88 -279 -149
-351 -467 -187 -819 167 -356 565 -781 1087 -1160 63 -46 117 -87 118 -92 2
-4 8 -8 12 -8 5 0 67 -38 137 -83 70 -46 150 -97 176 -113 27 -16 61 -36 75
-45 77 -46 223 -128 277 -155 28 -14 57 -29 65 -34 30 -19 277 -137 365 -174
50 -21 108 -47 130 -56 48 -22 243 -94 303 -112 23 -7 42 -15 42 -18 0 -3 10
-6 23 -8 13 -1 43 -9 67 -18 46 -16 283 -78 335 -87 17 -3 53 -10 82 -16 29
-6 74 -13 100 -16 26 -4 59 -9 73 -12 14 -3 106 -7 205 -8 131 -3 199 0 250
11 39 8 78 16 87 17 10 2 21 6 24 10 4 4 15 7 25 7 28 0 161 73 213 116 86 72
157 195 172 301 10 67 7 179 -6 238 -7 28 -13 57 -15 66 -6 27 -66 169 -97
227 -66 123 -218 332 -319 437 -22 23 -39 47 -39 55 0 7 -2 11 -6 8 -3 -3 -51
40 -107 96 -140 138 -137 136 -130 89 2 -21 6 -53 7 -71 2 -18 14 -44 27 -58
13 -15 40 -44 61 -65 20 -22 62 -72 95 -112 32 -39 61 -74 64 -77 15 -13 113
-167 148 -232 119 -223 133 -419 41 -546 -102 -142 -333 -207 -636 -180 -129
11 -193 20 -249 31 -16 4 -43 9 -60 12 -106 17 -492 133 -600 179 -16 7 -61
26 -100 41 -155 62 -446 201 -457 218 -4 7 -8 8 -8 4 0 -5 -24 5 -52 21 -29
16 -80 44 -113 62 -33 18 -72 41 -87 51 -14 11 -28 19 -31 19 -3 0 -43 23 -89
51 -658 407 -1164 887 -1354 1285 -57 119 -78 200 -78 304 -1 72 4 94 27 143
61 133 192 208 407 234 114 14 300 6 435 -18 33 -6 73 -12 88 -15 16 -2 68
-13 116 -24 l87 -21 64 30 c40 18 59 31 50 35 -59 20 -123 38 -240 67 -74 18
-137 36 -140 39 -3 3 -18 5 -35 4 -16 0 -43 3 -59 8 -16 4 -52 10 -80 14 -28
3 -62 8 -76 10 -33 6 -365 16 -371 11z"/>
<path d="M4250 3980 c-164 -46 -216 -230 -101 -353 70 -76 212 -79 288 -7 56
52 82 162 55 231 -35 89 -155 153 -242 129z"/>
<path d="M2417 3934 c-1 -1 -31 -4 -67 -8 -128 -13 -205 -30 -345 -78 -356
-122 -671 -397 -849 -743 -39 -76 -76 -168 -76 -188 0 -30 292 -309 485 -462
55 -44 104 -84 110 -88 5 -4 42 -30 80 -58 39 -27 78 -56 88 -64 9 -8 20 -15
23 -15 2 0 29 -18 59 -40 30 -22 56 -40 59 -40 2 0 46 -26 97 -59 197 -123
457 -264 644 -349 141 -64 188 -84 200 -88 6 -1 42 -15 80 -31 39 -17 102 -40
140 -53 39 -12 75 -25 80 -29 6 -3 15 -6 20 -8 6 -1 51 -13 100 -28 50 -14
110 -32 135 -39 25 -8 74 -19 108 -26 l64 -13 24 29 c46 55 152 219 181 279
15 33 31 62 36 63 4 2 7 10 7 17 0 7 9 35 21 62 25 59 77 258 87 333 4 30 7
134 7 230 -1 187 -17 291 -71 456 -106 327 -337 621 -634 809 -87 55 -306 154
-376 170 -10 2 -46 11 -79 19 -110 26 -206 38 -321 40 -63 1 -115 1 -117 0z"/>
<path d="M1006 2213 c11 -75 14 -89 37 -178 139 -529 546 -937 1077 -1078 52
-14 113 -28 135 -31 266 -38 482 -21 722 55 157 50 156 49 44 88 -584 205
-1232 565 -1783 990 -46 36 -88 70 -94 75 -18 18 -106 90 -126 104 -17 12 -18
11 -12 -25z"/>
</g>
</svg>
